<?xml version="1.0" encoding="UTF-8" standalone="no"?><!DOCTYPE svg PUBLIC "-//W3C//DTD SVG 1.1//EN" "http://www.w3.org/Graphics/SVG/1.1/DTD/svg11.dtd"><svg width="100%" height="100%" viewBox="0 0 876 314" version="1.1" xmlns="http://www.w3.org/2000/svg" xmlns:xlink="http://www.w3.org/1999/xlink" xml:space="preserve" xmlns:serif="http://www.serif.com/" style="fill-rule:evenodd;clip-rule:evenodd;stroke-linejoin:round;stroke-miterlimit:2;"><path d="M745.216,151.35c-0,-15.871 -5.565,-23.804 -16.698,-23.804c-5.682,0 -10.24,2.014 -13.673,6.042c-3.44,4.023 -5.568,9.947 -6.4,17.762l36.771,-0Zm25.756,14.924l-62.877,-0c0.591,8.997 2.751,15.984 6.481,20.954c3.73,4.977 8.618,7.46 14.656,7.46c2.719,-0 5.002,-0.355 6.836,-1.06c1.835,-0.714 3.73,-1.986 5.683,-3.824c1.957,-1.83 4.533,-4.823 7.729,-8.969c0.587,-0.949 1.834,-1.422 3.73,-1.422c2.01,-0 4.468,0.685 7.375,2.042c2.894,1.366 6.004,3.29 9.323,5.773c-7.701,16.583 -21.256,24.871 -40.676,24.871c-14.921,-0 -26.645,-4.529 -35.173,-13.587c-8.524,-9.063 -12.788,-21.464 -12.788,-37.216c-0,-10.301 1.924,-19.241 5.772,-26.823c3.848,-7.575 9.352,-13.408 16.518,-17.493c7.167,-4.089 15.663,-6.131 25.491,-6.131c13.616,-0 24.158,3.852 31.618,11.545c7.46,7.7 11.19,18.593 11.19,32.686c0,1.659 -0.297,5.389 -0.888,11.194" style="fill:url(#_Linear1);fill-rule:nonzero;"/><path d="M496.972,160.139c-5.084,-19.971 -11.863,-38.308 -20.334,-55.008c-8.471,16.7 -15.25,35.037 -20.333,55.008l40.667,0Zm4.358,19.971l-49.383,0c-1.696,7.988 -3.45,18.458 -5.263,31.413l-27.233,-0c4.596,-43.938 19,-86.3 43.208,-127.088l28.142,0c24.083,40.546 38.425,82.908 43.029,127.088l-27.233,-0c-1.817,-12.955 -3.575,-23.425 -5.267,-31.413" style="fill:url(#_Linear2);fill-rule:nonzero;"/><path d="M666.699,114.117c2.663,2.483 3.992,6.446 3.992,11.891c0,2.059 -0.267,4.084 -0.812,6.08c-0.546,2 -1.305,3.541 -2.271,4.633c-1.454,-0.846 -3.088,-1.454 -4.904,-1.817c-1.817,-0.362 -4.421,-0.546 -7.805,-0.546c-7.87,0 -13.708,2.425 -17.52,7.263c-3.813,4.842 -5.717,12.229 -5.717,22.15l-0,47.75l-26.871,-0l0,-99.854l26.871,-0l-0,13.25c2.417,-4.721 5.562,-8.317 9.437,-10.8c3.871,-2.479 8.171,-3.721 12.892,-3.721c5.808,-0 10.042,1.242 12.708,3.721" style="fill:url(#_Linear3);fill-rule:nonzero;"/><path d="M75.089,22.904c-73.85,45.042 -97.2,141.421 -52.154,215.275c4.979,8.154 10.671,15.588 16.8,22.492c0.133,-1.867 0.271,-3.738 0.512,-5.6c1.396,-9.608 4.484,-19.1 9.746,-27.417c5.163,-8.358 12.413,-15.358 20.642,-20.621c16.642,-10.529 36.104,-14.537 54.987,-16.908c19.013,-2.346 38.075,-2.862 56.925,-4.354c18.846,-1.475 37.646,-3.692 55.771,-8.429c9.042,-2.388 17.892,-5.438 26.321,-9.329c8.479,-3.725 16.108,-8.784 21.533,-15.7c5.405,-6.871 7.796,-15.763 6.409,-24.417c-1.288,-8.658 -5.896,-16.813 -12.196,-23.142c-6.383,-6.3 -14.304,-11.341 -23.004,-11.616c-8.65,-0.438 -17.667,3.162 -24.642,8.35c-1.2,0.912 -2.904,0.679 -3.817,-0.521l-0.108,-0.163c-5.375,-8.246 -13.7,-15.183 -22.8,-19.591c-9.242,-4.321 -19.625,-6.217 -29.9,-5.43c-10.242,0.609 -20.275,3.942 -28.658,9.905c-4.617,3.233 -8.771,7.233 -12.375,11.654c0.028,0.022 -0.492,0.65 -0.492,0.65c-2.7,3.404 -5.125,7.012 -6.996,10.829c-0.483,1.017 -1.7,1.454 -2.721,0.971c-0.17,-0.079 -0.35,-0.209 -0.487,-0.325c-3.154,-2.821 -6.875,-5.167 -10.75,-7.246c-0,-0 -0.758,-0.351 -0.75,-0.371c-1.888,-0.979 -3.746,-2.037 -5.704,-2.812c-6.304,-2.471 -13.054,-3.834 -19.825,-3.809c-13.621,-0.083 -26.8,5.496 -37.829,13.621c-0.713,0.521 -1.717,0.371 -2.238,-0.342c-0.471,-0.633 -0.4,-1.495 0.121,-2.05l0.196,-0.204c4.958,-5.258 10.675,-10.066 17.296,-13.987c6.629,-3.884 14.312,-6.446 22.42,-7.554c8.13,-1.188 16.655,-0.53 24.73,1.72c2.445,0.663 4.85,1.496 7.233,2.409c0.95,-1.529 1.817,-3.1 2.858,-4.584c3.842,-5.408 8.45,-10.437 13.763,-14.908c10.583,-8.942 24.475,-15.279 38.571,-16.817c13.775,-1.941 28.645,-0.412 42.608,5.109c6.358,2.596 12.396,6.008 17.954,10.083c6.917,-2.721 14.921,-4.529 23.563,-4.425c8.795,0.025 18.008,2.446 25.654,6.375c0.962,0.475 3.9,2.138 3.9,2.138c-29.838,-46.284 -80.213,-71.809 -131.784,-71.813c-27.754,-0.004 -55.841,7.383 -81.283,22.904Z" style="fill:url(#_Radial4);fill-rule:nonzero;"/><path d="M311.722,171.829c-9.745,13.159 -23.529,20.667 -33.9,25.15c-10.487,4.613 -21.158,8.042 -31.7,10.621c-10.558,2.529 -20.975,4.375 -31.237,5.5c-10.275,0.971 -20.346,1.471 -30.221,1.75l-56.029,0.746c-17.575,0.579 -33.721,2.954 -47.058,8.708c-6.546,2.979 -12.3,7.067 -16.98,12.575c-4.954,5.334 -8.725,12.296 -11.195,20.138c-1.388,4.566 -2.392,9.441 -3.063,14.475c50.104,46.412 126.675,56.166 187.871,18.841c44,-26.837 69.9,-71.929 74.258,-119.595c-0.254,0.354 -0.479,0.745 -0.746,1.091Z" style="fill:url(#_Linear5);fill-rule:nonzero;"/><path d="M555.767,112.582l26.871,-0l0,99.854l-26.871,-0l0,-99.854Zm-1.995,-32.496l-0,-2.721c-0,-9.446 4.725,-14.167 14.162,-14.167l2.542,0c9.437,0 14.162,4.721 14.162,14.167l0,2.721c0,9.441 -4.725,14.162 -14.162,14.162l-2.542,0c-9.437,0 -14.162,-4.721 -14.162,-14.162" style="fill:url(#_Linear6);fill-rule:nonzero;"/><path d="M745.216,151.35c-0,-15.871 -5.565,-23.804 -16.698,-23.804c-5.682,0 -10.24,2.014 -13.673,6.042c-3.44,4.023 -5.568,9.947 -6.4,17.762l36.771,-0Zm25.756,14.924l-62.877,-0c0.591,8.997 2.751,15.984 6.481,20.954c3.73,4.977 8.618,7.46 14.656,7.46c2.719,-0 5.002,-0.355 6.836,-1.06c1.835,-0.714 3.73,-1.986 5.683,-3.824c1.957,-1.83 4.533,-4.823 7.729,-8.969c0.587,-0.949 1.834,-1.422 3.73,-1.422c2.01,-0 4.468,0.685 7.375,2.042c2.894,1.366 6.004,3.29 9.323,5.773c-7.701,16.583 -21.256,24.871 -40.676,24.871c-14.921,-0 -26.645,-4.529 -35.173,-13.587c-8.524,-9.063 -12.788,-21.464 -12.788,-37.216c-0,-10.301 1.924,-19.241 5.772,-26.823c3.848,-7.575 9.352,-13.408 16.518,-17.493c7.167,-4.089 15.663,-6.131 25.491,-6.131c13.616,-0 24.158,3.852 31.618,11.545c7.46,7.7 11.19,18.593 11.19,32.686c0,1.659 -0.297,5.389 -0.888,11.194" style="fill:#257ab2;fill-rule:nonzero;"/><path d="M496.972,160.139c-5.084,-19.971 -11.863,-38.308 -20.334,-55.008c-8.471,16.7 -15.25,35.037 -20.333,55.008l40.667,0Zm4.358,19.971l-49.383,0c-1.696,7.988 -3.45,18.458 -5.263,31.413l-27.233,-0c4.596,-43.938 19,-86.3 43.208,-127.088l28.142,0c24.083,40.546 38.425,82.908 43.029,127.088l-27.233,-0c-1.817,-12.955 -3.575,-23.425 -5.267,-31.413" style="fill:#257ab2;fill-rule:nonzero;"/><path d="M666.699,114.117c2.663,2.483 3.992,6.446 3.992,11.891c0,2.059 -0.267,4.084 -0.812,6.08c-0.546,2 -1.305,3.541 -2.271,4.633c-1.454,-0.846 -3.088,-1.454 -4.904,-1.817c-1.817,-0.362 -4.421,-0.546 -7.805,-0.546c-7.87,0 -13.708,2.425 -17.52,7.263c-3.813,4.842 -5.717,12.229 -5.717,22.15l-0,47.75l-26.871,-0l0,-99.854l26.871,-0l-0,13.25c2.417,-4.721 5.562,-8.317 9.437,-10.8c3.871,-2.479 8.171,-3.721 12.892,-3.721c5.808,-0 10.042,1.242 12.708,3.721" style="fill:#257ab2;fill-rule:nonzero;"/><path d="M834.823,191.121c3.02,-2.487 5.833,-6.336 8.439,-11.547l-0,-13.146c-9.83,0.355 -17.262,1.983 -22.295,4.885c-5.034,2.902 -7.55,7.017 -7.55,12.347c-0,3.434 1.065,6.158 3.197,8.171c2.132,2.014 4.915,3.02 8.35,3.02c3.553,0 6.839,-1.243 9.859,-3.73m35.885,3.197c0.77,4.264 2.339,7.935 4.708,11.005c-2.487,1.786 -5.685,3.237 -9.583,4.362c-3.918,1.125 -7.471,1.688 -10.659,1.688c-2.971,-0 -5.339,-1.076 -7.116,-3.198c-1.776,-2.132 -3.079,-5.507 -3.908,-10.126c-3.198,4.974 -6.988,8.517 -11.37,10.659c-4.382,2.132 -10.066,3.188 -17.054,3.188c-8.646,-0 -15.633,-2.329 -20.963,-7.007c-5.329,-4.679 -7.994,-10.807 -7.994,-18.387c0,-10.659 4.471,-18.624 13.413,-23.904c8.941,-5.26 23.301,-8.428 43.08,-9.504l-0,-9.228c-0,-4.856 -1.274,-8.468 -3.82,-10.836c-2.546,-2.369 -6.425,-3.553 -11.636,-3.553c-3.79,-0 -7.55,0.74 -11.281,2.22c-3.72,1.481 -8.319,4.057 -13.767,7.728c-0.593,0.474 -1.422,0.711 -2.487,0.711c-2.132,-0 -4.412,-1.432 -6.84,-4.274c-2.428,-2.832 -4.589,-6.573 -6.484,-11.182c4.619,-4.027 11.103,-7.372 19.452,-10.037c8.35,-2.675 16.611,-3.997 24.782,-3.997c12.317,-0 21.792,2.872 28.424,8.616c6.632,5.744 9.958,13.945 9.958,24.604l0,29.49c0,9.711 0.376,16.699 1.145,20.962" style="fill:#257ab2;fill-rule:nonzero;"/><path d="M555.767,112.582l26.871,-0l0,99.854l-26.871,-0l0,-99.854Zm-1.995,-32.496l-0,-2.721c-0,-9.446 4.725,-14.167 14.162,-14.167l2.542,0c9.437,0 14.162,4.721 14.162,14.167l0,2.721c0,9.441 -4.725,14.162 -14.162,14.162l-2.542,0c-9.437,0 -14.162,-4.721 -14.162,-14.162" style="fill:#257ab2;fill-rule:nonzero;"/><defs><linearGradient id="_Linear1" x1="0" y1="0" x2="1" y2="0" gradientUnits="userSpaceOnUse" gradientTransform="matrix(96.1374,-151.073,151.073,96.1374,240.514,6464.3)"><stop offset="0" style="stop-color:#257ab2;stop-opacity:1"/><stop offset="1" style="stop-color:#94afd3;stop-opacity:1"/></linearGradient><linearGradient id="_Linear2" x1="0" y1="0" x2="1" y2="0" gradientUnits="userSpaceOnUse" gradientTransform="matrix(96.1374,-151.073,151.073,96.1374,240.514,6464.3)"><stop offset="0" style="stop-color:#257ab2;stop-opacity:1"/><stop offset="1" style="stop-color:#94afd3;stop-opacity:1"/></linearGradient><linearGradient id="_Linear3" x1="0" y1="0" x2="1" y2="0" gradientUnits="userSpaceOnUse" gradientTransform="matrix(96.1374,-151.073,151.073,96.1374,240.514,6464.3)"><stop offset="0" style="stop-color:#257ab2;stop-opacity:1"/><stop offset="1" style="stop-color:#94afd3;stop-opacity:1"/></linearGradient><radialGradient id="_Radial4" cx="0" cy="0" r="1" gradientUnits="userSpaceOnUse" gradientTransform="matrix(-78.7512,551.258,-551.258,-78.7512,179.811,-146.298)"><stop offset="0" style="stop-color:#abdfe9;stop-opacity:1"/><stop offset="0.26" style="stop-color:#abdfe9;stop-opacity:1"/><stop offset="0.47" style="stop-color:#257ab2;stop-opacity:1"/><stop offset="0.91" style="stop-color:#0f689e;stop-opacity:1"/><stop offset="1" style="stop-color:#0f689e;stop-opacity:1"/></radialGradient><linearGradient id="_Linear5" x1="0" y1="0" x2="1" y2="0" gradientUnits="userSpaceOnUse" gradientTransform="matrix(262.135,0,0,262.135,50.3349,241.981)"><stop offset="0" style="stop-color:#9acfb2;stop-opacity:1"/><stop offset="0.57" style="stop-color:#38b9d8;stop-opacity:1"/><stop offset="1" style="stop-color:#38b9d8;stop-opacity:1"/></linearGradient><linearGradient id="_Linear6" x1="0" y1="0" x2="1" y2="0" gradientUnits="userSpaceOnUse" gradientTransform="matrix(96.1374,-151.073,151.073,96.1374,240.514,6464.3)"><stop offset="0" style="stop-color:#257ab2;stop-opacity:1"/><stop offset="1" style="stop-color:#94afd3;stop-opacity:1"/></linearGradient></defs></svg>