<?xml version="1.0" encoding="UTF-8" standalone="no"?><!DOCTYPE svg PUBLIC "-//W3C//DTD SVG 1.1//EN" "http://www.w3.org/Graphics/SVG/1.1/DTD/svg11.dtd"><svg width="100%" height="100%" viewBox="0 0 456 620" version="1.1" xmlns="http://www.w3.org/2000/svg" xmlns:xlink="http://www.w3.org/1999/xlink" xml:space="preserve" xmlns:serif="http://www.serif.com/" style="fill-rule:evenodd;clip-rule:evenodd;stroke-linejoin:round;stroke-miterlimit:2;"><path d="M114.018,30.475c-98.279,59.946 -129.354,188.208 -69.408,286.488c6.625,10.854 14.196,20.745 22.358,29.929c0.175,-2.484 0.354,-4.975 0.675,-7.45c1.863,-12.796 5.979,-25.425 12.971,-36.488c6.875,-11.116 16.521,-20.433 27.475,-27.437c22.15,-14.017 48.042,-19.35 73.167,-22.5c25.312,-3.129 50.675,-3.817 75.758,-5.8c25.083,-1.959 50.1,-4.917 74.217,-11.217c12.033,-3.179 23.808,-7.233 35.029,-12.412c11.283,-4.955 21.433,-11.688 28.662,-20.896c7.192,-9.146 10.371,-20.975 8.521,-32.492c-1.708,-11.525 -7.841,-22.375 -16.233,-30.8c-8.488,-8.383 -19.025,-15.087 -30.608,-15.458c-11.509,-0.575 -23.513,4.212 -32.788,11.112c-1.6,1.213 -3.867,0.904 -5.079,-0.687l-0.146,-0.217c-7.154,-10.979 -18.233,-20.208 -30.342,-26.075c-12.308,-5.746 -26.12,-8.275 -39.787,-7.225c-13.633,0.813 -26.983,5.25 -38.146,13.183c-6.146,4.3 -11.671,9.621 -16.462,15.505c0.025,0.02 -0.659,0.866 -0.659,0.866c-3.591,4.534 -6.816,9.334 -9.308,14.409c-0.642,1.358 -2.263,1.937 -3.617,1.295c-0.229,-0.108 -0.471,-0.275 -0.654,-0.433c-4.2,-3.758 -9.146,-6.875 -14.304,-9.642c-0,0 -1.007,-0.472 -1,-0.491c-2.508,-1.304 -4.983,-2.717 -7.588,-3.742c-8.391,-3.292 -17.375,-5.108 -26.383,-5.075c-18.125,-0.112 -35.667,7.321 -50.342,18.125c-0.954,0.7 -2.283,0.496 -2.983,-0.45c-0.617,-0.846 -0.529,-1.996 0.171,-2.725l0.258,-0.279c6.6,-6.988 14.2,-13.388 23.017,-18.613c8.821,-5.162 19.054,-8.579 29.837,-10.045c10.813,-1.588 22.159,-0.713 32.905,2.287c3.262,0.879 6.458,1.988 9.625,3.208c1.262,-2.041 2.425,-4.129 3.808,-6.104c5.112,-7.196 11.242,-13.891 18.308,-19.841c14.092,-11.896 32.579,-20.33 51.334,-22.375c18.333,-2.588 38.12,-0.555 56.7,6.795c8.466,3.455 16.495,7.996 23.891,13.421c9.204,-3.625 19.863,-6.033 31.354,-5.891c11.713,0.033 23.975,3.258 34.142,8.483c1.283,0.629 5.188,2.846 5.188,2.846c-39.696,-61.596 -106.738,-95.563 -175.367,-95.567c-36.933,-0.004 -74.313,9.825 -108.167,30.475Z" style="fill:url(#_Radial1);fill-rule:nonzero;"/><path d="M428.922,228.667c-12.975,17.508 -31.32,27.5 -45.12,33.466c-13.955,6.142 -28.15,10.7 -42.18,14.142c-14.05,3.358 -27.912,5.813 -41.57,7.308c-13.68,1.296 -27.075,1.955 -40.213,2.33l-74.575,0.991c-23.379,0.775 -44.867,3.938 -62.617,11.592c-8.708,3.962 -16.362,9.404 -22.595,16.737c-6.588,7.096 -11.609,16.359 -14.905,26.792c-1.841,6.079 -3.179,12.571 -4.075,19.263c66.684,61.762 168.58,74.745 250.021,25.079c58.554,-35.717 93.021,-95.721 98.817,-159.154c-0.338,0.47 -0.633,0.991 -0.988,1.454Z" style="fill:url(#_Linear2);fill-rule:nonzero;"/><path d="M325.765,558.521c0,-15.87 -5.564,-23.804 -16.697,-23.804c-5.683,0 -10.241,2.014 -13.673,6.042c-3.441,4.024 -5.569,9.947 -6.401,17.762l36.771,-0Zm25.756,14.924l-62.877,-0c0.591,8.997 2.752,15.984 6.482,20.954c3.73,4.977 8.618,7.46 14.655,7.46c2.719,-0 5.002,-0.355 6.836,-1.06c1.835,-0.714 3.73,-1.985 5.683,-3.824c1.957,-1.83 4.533,-4.823 7.729,-8.968c0.587,-0.95 1.835,-1.423 3.73,-1.423c2.01,-0 4.468,0.685 7.375,2.042c2.894,1.366 6.005,3.29 9.323,5.773c-7.701,16.583 -21.255,24.871 -40.676,24.871c-14.92,-0 -26.645,-4.529 -35.173,-13.587c-8.524,-9.063 -12.788,-21.464 -12.788,-37.216c-0,-10.301 1.924,-19.241 5.772,-26.823c3.849,-7.575 9.352,-13.408 16.519,-17.493c7.166,-4.089 15.662,-6.131 25.491,-6.131c13.615,-0 24.157,3.852 31.618,11.545c7.46,7.7 11.19,18.593 11.19,32.686c-0,1.659 -0.298,5.389 -0.889,11.194" style="fill:#257ab2;fill-rule:nonzero;"/><path d="M77.521,567.721c-5.084,-19.971 -11.863,-38.308 -20.334,-55.008c-8.47,16.7 -15.25,35.037 -20.333,55.008l40.667,-0Zm4.358,19.971l-49.383,-0c-1.696,7.987 -3.45,18.458 -5.263,31.412l-27.233,0c4.596,-43.937 19,-86.3 43.208,-127.087l28.142,-0c24.083,40.546 38.425,82.908 43.029,127.087l-27.233,0c-1.817,-12.954 -3.575,-23.425 -5.267,-31.412" style="fill:#257ab2;fill-rule:nonzero;"/><path d="M247.249,521.7c2.662,2.483 3.991,6.446 3.991,11.892c0,2.058 -0.266,4.083 -0.812,6.079c-0.546,2 -1.304,3.542 -2.271,4.633c-1.454,-0.846 -3.087,-1.454 -4.904,-1.816c-1.817,-0.363 -4.421,-0.546 -7.804,-0.546c-7.871,-0 -13.709,2.425 -17.521,7.262c-3.813,4.842 -5.717,12.229 -5.717,22.15l0,47.75l-26.871,0l0,-99.854l26.871,0l0,13.25c2.417,-4.721 5.563,-8.317 9.438,-10.8c3.871,-2.479 8.171,-3.721 12.891,-3.721c5.809,0 10.042,1.242 12.709,3.721" style="fill:#257ab2;fill-rule:nonzero;"/><path d="M415.373,598.329c3.02,-2.487 5.832,-6.336 8.438,-11.547l-0,-13.146c-9.83,0.355 -17.262,1.984 -22.295,4.885c-5.033,2.902 -7.55,7.017 -7.55,12.347c-0,3.434 1.066,6.158 3.198,8.172c2.131,2.013 4.914,3.02 8.349,3.02c3.553,-0 6.84,-1.244 9.86,-3.731m35.885,3.198c0.769,4.263 2.339,7.935 4.707,11.004c-2.487,1.787 -5.684,3.237 -9.583,4.362c-3.918,1.126 -7.471,1.688 -10.659,1.688c-2.97,0 -5.339,-1.076 -7.116,-3.198c-1.776,-2.131 -3.079,-5.507 -3.908,-10.126c-3.198,4.975 -6.987,8.518 -11.369,10.659c-4.382,2.132 -10.067,3.188 -17.055,3.188c-8.645,0 -15.633,-2.329 -20.962,-7.007c-5.33,-4.678 -7.994,-10.807 -7.994,-18.387c-0,-10.659 4.47,-18.623 13.412,-23.903c8.942,-5.261 23.302,-8.429 43.08,-9.505l-0,-9.227c-0,-4.856 -1.273,-8.468 -3.82,-10.837c-2.546,-2.369 -6.425,-3.553 -11.636,-3.553c-3.789,-0 -7.55,0.74 -11.28,2.221c-3.721,1.48 -8.32,4.056 -13.768,7.727c-0.592,0.474 -1.421,0.711 -2.487,0.711c-2.132,-0 -4.412,-1.431 -6.84,-4.274c-2.428,-2.832 -4.589,-6.573 -6.484,-11.182c4.619,-4.026 11.103,-7.372 19.453,-10.037c8.349,-2.674 16.61,-3.997 24.782,-3.997c12.317,0 21.791,2.872 28.424,8.616c6.632,5.744 9.958,13.946 9.958,24.605l-0,29.489c-0,9.712 0.375,16.699 1.145,20.963" style="fill:#257ab2;fill-rule:nonzero;"/><path d="M136.317,519.25l26.87,0l0,99.854l-26.87,0l-0,-99.854Zm-1.996,-32.496l-0,-2.721c-0,-9.445 4.725,-14.166 14.162,-14.166l2.542,-0c9.437,-0 14.162,4.721 14.162,14.166l0,2.721c0,9.442 -4.725,14.163 -14.162,14.163l-2.542,-0c-9.437,-0 -14.162,-4.721 -14.162,-14.163" style="fill:#257ab2;fill-rule:nonzero;"/><defs><radialGradient id="_Radial1" cx="0" cy="0" r="1" gradientUnits="userSpaceOnUse" gradientTransform="matrix(-104.799,733.594,-733.594,-104.799,253.376,-194.687)"><stop offset="0" style="stop-color:#abdfe9;stop-opacity:1"/><stop offset="0.26" style="stop-color:#abdfe9;stop-opacity:1"/><stop offset="0.47" style="stop-color:#257ab2;stop-opacity:1"/><stop offset="0.91" style="stop-color:#0f689e;stop-opacity:1"/><stop offset="1" style="stop-color:#0f689e;stop-opacity:1"/></radialGradient><linearGradient id="_Linear2" x1="0" y1="0" x2="1" y2="0" gradientUnits="userSpaceOnUse" gradientTransform="matrix(348.84,0,0,348.84,81.0728,322.02)"><stop offset="0" style="stop-color:#9acfb2;stop-opacity:1"/><stop offset="0.57" style="stop-color:#38b9d8;stop-opacity:1"/><stop offset="1" style="stop-color:#38b9d8;stop-opacity:1"/></linearGradient></defs></svg>